# xmcd CD database file
#
# Track frame offsets:
#	150
#	20664
#	39857
#	56578
#	68082
#	82124
#	105254
#	119414
#	134285
#	157842
#	179402
#	198946
#	221633
#
# Disc length: 3145 seconds
#
# Revision: 0
# Processed by: cddbd v1.5.2PL0 Copyright (c) Steve Scherf et al.
# Submitted via: CDex 1.70beta2
#
DISCID=ac0c470d
DTITLE=Yves Carini - Un été parisien
DYEAR=2005
DGENRE=Jazz
TTITLE0=Le cimetière des éléphants
TTITLE1=Rien qu"un jour
TTITLE2=Simlplement
TTITLE3=J'suis heureux
TTITLE4=De soleil en soleil
TTITLE5=Un été parisien
TTITLE6=J'en ai marre
TTITLE7=Coté soleil
TTITLE8=Vu d'en haut
TTITLE9=Sandy
TTITLE10=Je vole
TTITLE11=Doux poisson
TTITLE12=Est-ce par hasard
EXTD=YEAR: 2005
EXTT0=
EXTT1=
EXTT2=
EXTT3=
EXTT4=
EXTT5=
EXTT6=
EXTT7=
EXTT8=
EXTT9=
EXTT10=
EXTT11=
EXTT12=
PLAYORDER=
